<?xml version="1.0" encoding="UTF-8"?>
<svg enable-background="new 0 0 1730.3451 1604.5946" version="1.1" viewBox="0 0 1730.3451 1604.5946" xml:space="preserve" xmlns="http://www.w3.org/2000/svg"><defs><filter id="c" color-interpolation-filters="sRGB"><feFlood flood-color="rgb(0,0,0)" result="flood"/><feComposite in="flood" in2="SourceGraphic" operator="in" result="composite1"/><feGaussianBlur in="composite1" result="blur" stdDeviation="6.8"/><feOffset dx="3.6" dy="3.9" result="offset"/><feComposite in="SourceGraphic" in2="offset" result="composite2"/></filter><filter id="b" color-interpolation-filters="sRGB"><feFlood flood-color="rgb(0,0,0)" result="flood"/><feComposite in="flood" in2="SourceGraphic" operator="in" result="composite1"/><feGaussianBlur in="composite1" result="blur" stdDeviation="6.8"/><feOffset dx="3.6" dy="3.9" result="offset"/><feComposite in="SourceGraphic" in2="offset" result="composite2"/></filter><filter id="a" color-interpolation-filters="sRGB"><feBlend in2="SourceGraphic" mode="multiply" result="blend"/></filter></defs><g filter="url(#a)"><g filter="url(#b)"><linearGradient id="i" x1="380.05" x2="1717.5" y1="876.4" y2="876.4" gradientTransform="matrix(1 0 0 -1 -320.76 1678.7)" gradientUnits="userSpaceOnUse"><stop stop-color="#C38B45" offset="0"/><stop stop-color="#A17237" offset=".08"/><stop stop-color="#F9F290" offset=".2"/><stop stop-color="#E29C53" offset=".35"/><stop stop-color="#F9F290" offset=".46"/><stop stop-color="#CC9D53" offset=".56"/><stop stop-color="#FBF391" offset=".67"/><stop stop-color="#C89957" offset=".77"/><stop stop-color="#462E0A" offset=".84"/><stop stop-color="#B47F41" offset=".93"/><stop stop-color="#BE8742" offset="1"/></linearGradient><path d="m434.14 1146.7c-184.27-296.4-93.258-686.51 203.14-870.78 245.64-152.7 555.64-116.35 759.5 69.293-106.12-137.23-260.22-238.34-443.52-275.13-404.21-81.13-798.11 181.07-879.24 585.28-81.134 404.21 181.08 798.11 585.28 879.24 254.23 51.031 504.35-33.794 675.17-204.32-9.6201 6.7452-19.458 13.281-29.556 19.561-296.4 184.27-686.52 93.262-870.78-203.14z" fill="url(#i)"/><linearGradient id="h" x1="751.87" x2="751.87" y1="1556.3" y2="48.31" gradientUnits="userSpaceOnUse"><stop stop-color="#893700" offset=".0018"/><stop stop-color="#F4FC3F" offset=".1087"/><stop stop-color="#FBAF24" offset=".2014"/><stop stop-color="#A46B1E" offset=".2834"/><stop stop-color="#432907" offset=".3886"/><stop stop-color="#BF8726" offset=".5169"/><stop stop-color="#F9BA43" offset=".6257"/><stop stop-color="#B58726" offset=".7451"/><stop stop-color="#FFF575" offset=".8538"/><stop stop-color="#FEEF6F" offset=".8737"/><stop stop-color="#FADE60" offset=".9003"/><stop stop-color="#F3C246" offset=".9309"/><stop stop-color="#EA9B23" offset=".9641"/><stop stop-color="#E9961E" offset=".9679"/></linearGradient><path d="m434.14 1146.7c-184.27-296.4-93.258-686.51 203.14-870.78 245.64-152.7 555.64-116.35 759.5 69.293-106.12-137.23-260.22-238.34-443.52-275.13-404.21-81.13-798.11 181.07-879.24 585.28-81.134 404.21 181.08 798.11 585.28 879.24 254.23 51.031 504.35-33.794 675.17-204.32-9.6201 6.7452-19.458 13.281-29.556 19.561-296.4 184.27-686.52 93.262-870.78-203.14z" fill="none" stroke="url(#h)" stroke-miterlimit="12" stroke-width="14"/><linearGradient id="g" x1="275.71" x2="1336.9" y1="1332.9" y2="271.72" gradientUnits="userSpaceOnUse"><stop stop-color="#fff" offset="0"/><stop offset=".1"/><stop stop-color="#fff" offset=".2"/><stop offset=".3"/><stop stop-color="#fff" offset=".4"/><stop offset=".5"/><stop stop-color="#fff" offset=".6"/><stop offset=".7"/><stop stop-color="#fff" offset=".8"/><stop offset=".9"/><stop stop-color="#fff" offset="1"/></linearGradient><path d="m434.14 1146.7c-184.27-296.4-93.258-686.51 203.14-870.78 245.64-152.7 555.64-116.35 759.5 69.293-106.12-137.23-260.22-238.34-443.52-275.13-404.21-81.13-798.11 181.07-879.24 585.28-81.134 404.21 181.08 798.11 585.28 879.24 254.23 51.031 504.35-33.794 675.17-204.32-9.6201 6.7452-19.458 13.281-29.556 19.561-296.4 184.27-686.52 93.262-870.78-203.14z" fill="none" stroke="url(#g)" stroke-miterlimit="12" stroke-width="7"/></g><g filter="url(#c)"><linearGradient id="f" x1="1451.7" x2="1988.6" y1="858.99" y2="858.99" gradientTransform="matrix(1 0 0 -1 -320.76 1678.7)" gradientUnits="userSpaceOnUse"><stop stop-color="#BA8B01" offset="0"/><stop stop-color="#CDAA37" offset=".0438"/><stop stop-color="#E8D886" offset=".1121"/><stop stop-color="#F8F4B8" offset=".1607"/><stop stop-color="#FFFFCB" offset=".1847"/><stop stop-color="#FFFFCB" offset=".2668"/><stop stop-color="#FDF9C1" offset=".2736"/><stop stop-color="#F5E6A0" offset=".2986"/><stop stop-color="#F0D989" offset=".3226"/><stop stop-color="#EDD17B" offset=".345"/><stop stop-color="#ECCE76" offset=".3642"/><stop stop-color="#A26F14" offset=".4892"/><stop stop-color="#A67418" offset=".4921"/><stop stop-color="#C19234" offset=".5133"/><stop stop-color="#D4A848" offset=".5341"/><stop stop-color="#E0B654" offset=".554"/><stop stop-color="#E4BA58" offset=".5721"/><stop stop-color="#C99B3C" offset=".5925"/><stop stop-color="#B48326" offset=".6136"/><stop stop-color="#A77419" offset=".6331"/><stop stop-color="#A26F14" offset=".6491"/><stop stop-color="#A67418" offset=".6521"/><stop stop-color="#C19234" offset=".6744"/><stop stop-color="#D4A848" offset=".6961"/><stop stop-color="#E0B654" offset=".717"/><stop stop-color="#E4BA58" offset=".736"/><stop stop-color="#EDD17F" offset=".7439"/><stop stop-color="#F5E5A0" offset=".7524"/><stop stop-color="#FAF3B9" offset=".7605"/><stop stop-color="#FEFCC8" offset=".7679"/><stop stop-color="#FFFFCD" offset=".7741"/><stop stop-color="#FFFFCD" offset=".7957"/><stop stop-color="#E5BD5D" offset=".8468"/><stop stop-color="#BB913B" offset=".8861"/><stop stop-color="#BB913B" offset=".9116"/><stop stop-color="#BE9337" offset=".9147"/><stop stop-color="#C39830" offset=".925"/><stop stop-color="#C5992E" offset=".9509"/><stop stop-color="#7F470A" offset="1"/></linearGradient><polygon points="1296.9 879.98 1131 758.94 1336 758.94 1399.4 563.9 1462.8 758.94 1667.9 758.94 1502 880.01 1565.3 1075.3 1399.4 954.91 1233.5 1075.5" fill="url(#f)"/><linearGradient id="e" x1="1399.4" x2="1399.4" y1="1095.1" y2="539.63" gradientUnits="userSpaceOnUse"><stop stop-color="#4E1A05" offset="0"/><stop stop-color="#EE9305" offset=".0848"/><stop stop-color="#EC9105" offset=".097"/><stop stop-color="#E78904" offset=".103"/><stop stop-color="#DD7C04" offset=".1077"/><stop stop-color="#D06A02" offset=".1116"/><stop stop-color="#BE5201" offset=".1151"/><stop stop-color="#BE5101" offset=".1152"/><stop stop-color="#C05504" offset=".1266"/><stop stop-color="#C4620C" offset=".1384"/><stop stop-color="#CC7619" offset=".1504"/><stop stop-color="#D7932C" offset=".1625"/><stop stop-color="#E5B844" offset=".1746"/><stop stop-color="#EFD254" offset=".1818"/><stop stop-color="#EFD357" offset=".1992"/><stop stop-color="#F0D761" offset=".2131"/><stop stop-color="#F2DE72" offset=".2258"/><stop stop-color="#F5E78A" offset=".2378"/><stop stop-color="#F6EC95" offset=".2424"/><stop stop-color="#BB7A04" offset=".2727"/><stop stop-color="#8A5103" offset=".2918"/><stop stop-color="#623003" offset=".3101"/><stop stop-color="#4A1B02" offset=".3245"/><stop stop-color="#411402" offset=".3333"/><stop stop-color="#441602" offset=".3435"/><stop stop-color="#4E1D02" offset=".3516"/><stop stop-color="#5F2902" offset=".359"/><stop stop-color="#773901" offset=".3661"/><stop stop-color="#964E01" offset=".3728"/><stop stop-color="#BB6700" offset=".3792"/><stop stop-color="#CC7300" offset=".3818"/><stop stop-color="#5E2505" offset=".4364"/><stop stop-color="#F59B05" offset=".497"/><stop stop-color="#BA4F02" offset=".5394"/><stop stop-color="#EFD254" offset=".6"/><stop stop-color="#FAF49D" offset=".6545"/><stop stop-color="#CD9621" offset=".6848"/><stop stop-color="#4F1D01" offset=".7394"/><stop stop-color="#CA7200" offset=".7879"/><stop stop-color="#4F1B05" offset=".8303"/><stop stop-color="#E28204" offset=".8788"/><stop stop-color="#FAF49C" offset=".9091"/><stop stop-color="#410" offset=".9333"/><stop stop-color="#FAF49E" offset=".9879"/></linearGradient><polygon points="1296.9 879.98 1131 758.94 1336 758.94 1399.4 563.9 1462.8 758.94 1667.9 758.94 1502 880.01 1565.3 1075.3 1399.4 954.91 1233.5 1075.5" fill="none" stroke="url(#e)" stroke-miterlimit="12" stroke-width="15"/><linearGradient id="d" x1="1118.7" x2="1680.2" y1="818.47" y2="818.47" gradientUnits="userSpaceOnUse"><stop stop-color="#221C0F" offset=".0031"/><stop stop-color="#4E330A" offset=".1006"/><stop stop-color="#374520" offset=".2044"/><stop stop-color="#314D1B" offset=".2421"/><stop stop-color="#586F30" offset=".3679"/><stop stop-color="#7C8350" offset=".4088"/><stop stop-color="#FFE60D" offset=".4465"/><stop stop-color="#D27F15" offset=".4811"/><stop stop-color="#FEFEFD" offset=".5094"/><stop stop-color="#FEFEFD" offset=".6195"/><stop stop-color="#FFE60D" offset=".7013"/><stop stop-color="#D27F15" offset=".7455"/><stop stop-color="#4E330A" offset=".7758"/><stop stop-color="#221C0F" offset="1"/></linearGradient><polygon points="1296.9 879.98 1131 758.94 1336 758.94 1399.4 563.9 1462.8 758.94 1667.9 758.94 1502 880.01 1565.3 1075.3 1399.4 954.91 1233.5 1075.5" fill="none" stroke="url(#d)" stroke-miterlimit="12" stroke-width="8"/></g></g></svg>
